<svg width="1637" height="174" viewBox="0 0 1637 174" fill="none" xmlns="http://www.w3.org/2000/svg">
<path d="M1637 77.0416L1598.01 82.3945C1559.02 88.1514 1481.26 98.2512 1402.82 109.361C1325.17 120.471 1247.08 130.571 1169.77 136.328C1091.33 141.681 1012.89 141.681 935.591 141.681C857.492 141.681 779.849 141.681 701.409 114.714C623.652 88.1514 545.667 33.6123 467.227 12.4026C389.811 -8.80702 311.485 1.29282 234.182 12.4026C155.856 23.5125 78.4396 33.6123 38.6514 39.3692L3.05176e-05 44.7221V174H38.9925C77.9849 174 155.742 174 234.182 174C311.826 174 389.924 174 467.227 174C545.667 174 624.106 174 701.409 174C779.508 174 857.151 174 935.591 174C1013.35 174 1091.33 174 1169.77 174C1247.19 174 1325.52 174 1402.82 174C1481.14 174 1558.56 174 1598.35 174H1637V77.0416Z" fill="white"/>
</svg>
