<svg width="1000" height="1000" viewBox="0 0 1000 1000" fill="none" xmlns="http://www.w3.org/2000/svg">
<g clip-path="url(#clip0)">
<rect width="1000" height="1000" fill="white"/>
<path d="M756.491 631L583.63 809.025L438 841.196L444.487 889L609.955 869.011L796 701.57L756.491 631Z" fill="#0D6B4A"/>
<path d="M761.481 630L588.572 808.112L414 845.961L419.435 886L614.905 868.128L801 700.605L761.481 630Z" stroke="#0F0F0F" stroke-width="5" stroke-miterlimit="10"/>
<path d="M348.92 854.394L318.056 874.507C317.488 875.222 317.089 876.043 316.857 876.926L315.153 916.036L319.845 916.794L325.209 889.949L345.743 878.167" fill="#FFFFFE"/>
<path d="M348.92 854.394L318.056 874.507C317.488 875.222 317.089 876.043 316.857 876.926L315.153 916.036L319.845 916.794L325.209 889.949L345.743 878.167" stroke="#0F0F0F" stroke-width="5" stroke-linejoin="round"/>
<path d="M354.095 854.647L323.232 874.759C322.664 875.475 322.264 876.295 322.033 877.179L320.329 916.289L323.148 916.962L330.196 892.053L349.109 878.441" fill="#FFFFFE"/>
<path d="M354.095 854.647L323.232 874.759C322.664 875.475 322.264 876.295 322.033 877.179L320.329 916.289L323.148 916.962L330.196 892.053L349.109 878.441" stroke="#0F0F0F" stroke-width="5" stroke-linejoin="round"/>
<path d="M429.601 878.525L426.908 851.175L348.225 854.331L307.979 875.327C307.411 876.043 307.011 876.863 306.78 877.747L305.076 916.857L312.292 917.214L319.571 887.782L342.587 877.915L381.613 881.197L429.601 878.525Z" fill="#FFFFFE" stroke="#0F0F0F" stroke-width="5" stroke-linejoin="round"/>
<path d="M385 880.524L373.324 891.948L366.129 906.801L355.652 905.917L361.458 878.083L369.853 870.51" stroke="#0F0F0F" stroke-width="5" stroke-linejoin="round"/>
<path d="M419.387 886L443 883.83L436.444 842L414 845.92L419.387 886Z" fill="#FFFFFE" stroke="#0F0F0F" stroke-width="5" stroke-miterlimit="10"/>
<path d="M72.8572 915.726L140.041 600.897L176.678 864.734L204.689 860.884L121.818 264L93.8073 267.871L135.686 569.552L54 929H229V915.453L72.8572 915.726Z" fill="#FFDB4D"/>
<path d="M836.166 405.483L820.869 412.898L819.291 448.058L775.358 468.26C775.337 468.239 767.468 459.223 767.447 459.202C767.195 458.865 767.279 458.38 767.615 458.127C770.75 455.557 783.69 443.992 784.195 432.153C784.7 420.313 779.987 410.854 765.048 410.201C752.403 409.675 745.586 414.899 745.144 425.243L730.984 435.923L733.424 387.323L665 385.259L668.472 311L825.141 316.856L822.426 378.623C822.426 378.623 831.263 391.684 838.459 392.4C838.459 392.4 839.133 386.312 858.322 379.381C866.444 376.453 958.244 348.435 983.135 443.17C1009.02 541.655 896.448 586 896.448 586C896.448 586 950.291 469.524 864.613 427.307C837.849 414.12 836.166 405.483 836.166 405.483Z" fill="#FFDB4D"/>
<path d="M822 322.871C822 322.871 822 322.85 822 322.871L664.819 317L659.183 436.539L642 475.76L660.175 476.834L658.698 538.907C658.698 538.928 658.698 538.928 658.698 538.949L731.082 540.948L728.865 576.677C728.865 576.698 728.844 576.677 728.865 576.677C735.557 577.287 809.334 576.845 809.334 576.845L818.306 405.502L822 322.871Z" stroke="#0F0F0F" stroke-width="5" stroke-miterlimit="10"/>
<path d="M959.734 408.305C962.301 411.475 964.721 414.938 966.994 418.779C971.896 427.028 976.042 436.914 979.135 448.69C1005.02 546.817 892.442 591 892.442 591C892.442 591 946.288 474.948 860.605 432.884C833.861 419.766 832.177 411.139 832.177 411.139L816.88 418.527L815.301 453.559L771.366 473.688C771.345 473.667 763.475 464.684 763.454 464.663C763.201 464.327 763.285 463.844 763.622 463.592C766.757 461.032 779.698 449.508 780.203 437.712C780.708 425.916 775.995 416.491 761.055 415.841C748.409 415.316 741.591 420.521 741.149 430.827L726.988 441.469L729.429 393.046L661 390.989L664.472 317L821.151 322.835L818.437 384.377C818.437 384.377 827.274 397.391 834.471 398.104C834.471 398.104 835.144 392.038 854.334 385.133C859.363 383.328 896.398 371.951 929.812 385.888" stroke="#0F0F0F" stroke-width="5" stroke-miterlimit="10"/>
<path d="M683.299 419.617C683.361 418.247 682.225 417.084 680.762 417.018C679.3 416.952 678.064 418.009 678.003 419.379C677.941 420.749 679.077 421.912 680.539 421.978C682.002 422.044 683.237 420.987 683.299 419.617Z" fill="#0F0F0F" stroke="#0F0F0F" stroke-width="5" stroke-miterlimit="10.0001"/>
<path d="M672 517L686.225 513.491L690 510" stroke="#0F0F0F" stroke-width="5" stroke-miterlimit="10"/>
<path d="M827.058 392.965L825.788 416.408L833.918 416.849L835.188 393.405L827.058 392.965Z" fill="#FFFFFE" stroke="#0F0F0F" stroke-width="5" stroke-miterlimit="9.9996"/>
<path d="M0 997H540V932H0.400031L0 997Z" fill="#FFFFFE" stroke="#0F0F0F" stroke-width="5" stroke-miterlimit="10"/>
<path d="M727.357 577H814.385L816 544L727 565.747L727.357 577Z" fill="#FFFFFE" stroke="#0F0F0F" stroke-width="5" stroke-miterlimit="10"/>
<path d="M422 917H274V932H422V917Z" fill="#FFFFFE" stroke="#0F0F0F" stroke-width="5" stroke-miterlimit="10"/>
<path d="M119.743 489.382L131.241 572.541L50 932H224V918.452L68.7495 918.726L135.55 603.886L171.977 867.732L199.827 863.882L117.431 267L89.5799 270.85L106.332 392.128" stroke="#0F0F0F" stroke-width="5" stroke-miterlimit="10"/>
<path d="M127 102.734V56.7259C127 48.5215 133.511 42 141.703 42H403V193.046C402.79 205.037 393.128 214.924 381.155 214.924H212.068L196.315 250.898C193.795 256.367 186.023 256.367 183.502 250.898L167.749 214.924H127V156.105" stroke="#0F0F0F" stroke-width="5" stroke-miterlimit="10"/>
<path d="M642 102.734V56.7259C642 48.5215 648.511 42 656.703 42H918V193.046C917.79 205.037 908.128 214.924 896.155 214.924H727.068L711.315 250.898C708.795 256.367 701.023 256.367 698.502 250.898L682.749 214.924H642V156.105" stroke="#0F0F0F" stroke-width="5" stroke-miterlimit="10"/>
<path d="M333.328 264H575V439.855C574.721 453.811 562.263 465.326 546.825 465.326H328.741L308.413 507.216C305.153 513.595 295.141 513.595 291.881 507.216L271.554 465.326H219V281.135C219 271.578 227.406 264 237.954 264H249.573" stroke="#0F0F0F" stroke-width="5" stroke-miterlimit="10"/>
<path d="M586 451C585.722 465.246 573.315 477 557.941 477H513" stroke="#0F0F0F" stroke-width="5" stroke-miterlimit="10"/>
<path d="M600 461C599.719 475.246 587.171 487 571.622 487H539" stroke="#0F0F0F" stroke-width="5" stroke-miterlimit="10"/>
<path d="M687.501 1000L699.345 947.028C699.345 947.028 662.717 722.479 667.416 686.393C671.526 654.892 733.887 577 733.887 577H826.428C826.428 577 849.632 597.629 860.612 612.119C872.182 627.407 882.53 650.98 884.827 682.356C887.124 713.731 865.754 940.677 865.754 940.677L874.269 1000" fill="#0D6B4A"/>
<path d="M860.48 869C857.956 902.962 856 927.626 856 927.626L867 1000" stroke="#0F0F0F" stroke-width="5" stroke-miterlimit="10"/>
<path d="M684.539 1000L698.566 931.698C698.566 931.698 661.273 712.448 665.305 677.33C668.812 646.69 727.166 577 727.166 577H814.266C814.266 577 836.482 592.982 847.023 607.261C858.152 622.297 868.211 645.387 870.751 675.984C872.137 692.807 867.476 767.187 863.003 830.737C862.73 834.522 862.478 838.265 862.205 841.945" stroke="#0F0F0F" stroke-width="5" stroke-miterlimit="10"/>
<path d="M749.215 651.038L636.492 809.814L447.147 827.276L449.272 870.657L660.77 876.148C660.77 876.148 832.968 716.594 840.752 684.468C846.811 663.472 802.042 596.108 749.215 651.038Z" fill="#FFFFFE"/>
<path d="M752.013 651.733L636.05 814.884L444.328 829.064L449.672 871.267L663.547 876.821C663.547 876.821 835.745 717.267 843.529 685.141C849.609 664.166 804.84 596.802 752.013 651.733Z" fill="#0D6B4A"/>
<path d="M407.89 862.305L396.172 870.089L385.589 881.407L376.438 877.705L389.376 854.331L399.012 849.871" fill="#FFFFFE"/>
<path d="M407.89 862.305L396.172 870.089L385.589 881.407L376.438 877.705L389.376 854.331L399.012 849.871" stroke="#0F0F0F" stroke-width="5" stroke-linejoin="round"/>
<path d="M363.352 850.018L348.204 874.78C347.931 875.601 347.826 876.442 347.889 877.305L358.534 912.502L361.248 912.228L359.754 887.971L372.314 870.026" fill="#FFFFFE"/>
<path d="M363.352 850.018L348.204 874.78C347.931 875.601 347.826 876.442 347.889 877.305L358.534 912.502L361.248 912.228L359.754 887.971L372.314 870.026" stroke="#0F0F0F" stroke-width="5" stroke-linejoin="round"/>
<path d="M358.681 851.407L343.534 876.169C343.26 876.989 343.155 877.831 343.218 878.693L353.864 913.89L358.261 913.112L354.663 887.635L369.222 870.825" fill="#FFFFFE"/>
<path d="M358.681 851.407L343.534 876.169C343.26 876.989 343.155 877.831 343.218 878.693L353.864 913.89L358.261 913.112L354.663 887.635L369.222 870.825" stroke="#0F0F0F" stroke-width="5" stroke-linejoin="round"/>
<path d="M436.902 848.188L436.018 829.359L401.094 836.385L358.071 851.554L334.866 880.019C334.593 880.839 334.487 881.681 334.55 882.543L345.196 917.74L351.697 915.826L349.004 887.466L366.339 871.561L403.072 865.502L436.902 859.149V848.188V848.188Z" fill="#FFFFFE" stroke="#0F0F0F" stroke-width="5" stroke-linejoin="round"/>
<path d="M749.677 646.704L636.471 805.985L429.643 824.877L438.732 862.936L663.315 866.47C663.315 866.47 831.432 710.724 839.006 679.335C844.96 658.822 801.242 593.057 749.677 646.704Z" stroke="#0F0F0F" stroke-width="5" stroke-miterlimit="10"/>
<path d="M450.303 862.641L447.126 823.426L423.479 825.214L427.308 863.062L450.303 862.641Z" fill="#FFFFFE" stroke="#0F0F0F" stroke-width="5" stroke-miterlimit="10"/>
<path d="M300.031 883C300.031 883 299.744 874.31 300.914 872.286C302.085 870.263 315 863 315 863" stroke="#0F0F0F" stroke-width="5" stroke-miterlimit="10"/>
<path d="M294.032 878C294.032 878 293.734 869.022 294.95 866.932C296.166 864.841 305 860 305 860" stroke="#0F0F0F" stroke-width="5" stroke-miterlimit="10"/>
<path d="M728.725 148H740.575V95.5H728.725V148ZM774.188 148.6C786.563 148.6 795.338 142.375 797.813 131.95L785.888 129.25C784.688 134.875 780.263 138.4 774.113 138.4C766.088 138.4 759.713 132.7 759.713 121.75C759.713 110.8 766.163 105.025 774.113 105.025C780.188 105.025 784.988 109 786.188 115.3L797.963 112.825C796.463 101.95 787.313 94.9 774.188 94.9C760.163 94.9 747.788 104.05 747.788 121.75C747.788 139.45 759.938 148.6 774.188 148.6ZM847.966 148L834.541 124.975C839.341 122.2 842.116 117.175 842.116 111.475C842.116 101.8 835.366 95.5 825.016 95.5H804.091L804.241 148H816.091V127.45H822.691L834.091 148H847.966ZM816.091 105.625H822.991C827.641 105.625 830.266 107.8 830.266 111.475C830.266 115.15 827.641 117.325 822.991 117.325H816.091V105.625Z" fill="#0D6B4A"/>
<path d="M423.725 387H434.75V356.475L447.725 387H456.35L469.25 356.475V387H480.275V334.5H467.225L452 370.2L436.775 334.5H423.725V387ZM489.716 387H525.116V376.8H501.566V334.5H489.716V387Z" fill="#0D6B4A"/>
<path d="M202.475 148.6C217.925 148.6 229.325 137.2 229.325 121.75C229.325 106.3 217.925 94.9 202.475 94.9C186.875 94.9 175.475 106.3 175.475 121.75C175.475 137.2 186.875 148.6 202.475 148.6ZM202.4 138.4C193.55 138.4 187.325 131.35 187.325 121.75C187.325 112.15 193.55 105.025 202.4 105.025C211.175 105.025 217.475 112.15 217.475 121.75C217.475 131.35 211.175 138.4 202.4 138.4ZM260.615 148.6C272.99 148.6 281.765 142.375 284.24 131.95L272.315 129.25C271.115 134.875 266.69 138.4 260.54 138.4C252.515 138.4 246.14 132.7 246.14 121.75C246.14 110.8 252.59 105.025 260.54 105.025C266.615 105.025 271.415 109 272.615 115.3L284.39 112.825C282.89 101.95 273.74 94.9 260.615 94.9C246.59 94.9 234.215 104.05 234.215 121.75C234.215 139.45 246.365 148.6 260.615 148.6ZM334.393 148L320.968 124.975C325.768 122.2 328.543 117.175 328.543 111.475C328.543 101.8 321.793 95.5 311.443 95.5H290.518L290.668 148H302.518V127.45H309.118L320.518 148H334.393ZM302.518 105.625H309.418C314.068 105.625 316.693 107.8 316.693 111.475C316.693 115.15 314.068 117.325 309.418 117.325H302.518V105.625Z" fill="#0D6B4A"/>
<path d="M309.15 387H321.375L301.5 334.5H290.325L270.45 387H282.75L286.575 376.2H305.325L309.15 387ZM290.175 366.3L295.95 350.025L301.725 366.3H290.175ZM325.995 387H337.845V334.5H325.995V387Z" fill="#0D6B4A"/>
<line x1="338.5" y1="333" x2="338.5" y2="387" stroke="black" stroke-width="5"/>
<line x1="502.5" y1="334" x2="502.5" y2="375" stroke="black" stroke-width="5"/>
<line x1="525" y1="997.5" x2="1000" y2="997.5" stroke="black" stroke-width="5"/>
</g>
<defs>
<clipPath id="clip0">
<rect width="1000" height="1000" fill="white"/>
</clipPath>
</defs>
</svg>
